HIERARCHY
ROOT newVegas:Hips
{
	OFFSET 0.000000 96.479958 0.000000
	CHANNELS 6 Xposition Yposition Zposition Xrotation Yrotation Zrotation
	JOINT newVegas:Pelvis
	{
		OFFSET 0.000000 0.000000 0.000000
		CHANNELS 3 Xrotation Yrotation Zrotation
		JOINT newVegas:LeftUpLeg
		{
			OFFSET 18.735201 -5.666702 -4.541200
			CHANNELS 3 Xrotation Yrotation Zrotation
			JOINT newVegas:LeftLeg
			{
				OFFSET -0.021200 -31.938179 0.493100
				CHANNELS 3 Xrotation Yrotation Zrotation
				JOINT newVegas:LeftFoot
				{
					OFFSET 0.021200 -31.938179 -4.336299
					CHANNELS 3 Xrotation Yrotation Zrotation
					JOINT newVegas:LeftToeBase
					{
						OFFSET 0.943001 -26.722000 15.023500
						CHANNELS 3 Xrotation Yrotation Zrotation
						End Site
						{
							OFFSET 0.000000 30.670183 0.000000
						}
					}
				}
				JOINT newVegas:Left_PantLeg
				{
					OFFSET 0.663870 -9.044666 -1.108900
					CHANNELS 3 Xrotation Yrotation Zrotation
					End Site
					{
						OFFSET 1.415995 20.635357 0.000000
					}
				}
			}
		}
		JOINT newVegas:RightUpLeg
		{
			OFFSET -18.735201 -5.666702 -4.541200
			CHANNELS 3 Xrotation Yrotation Zrotation
			JOINT newVegas:RightLeg
			{
				OFFSET 0.018946 -31.938133 0.493100
				CHANNELS 3 Xrotation Yrotation Zrotation
				JOINT newVegas:RightFoot
				{
					OFFSET -0.018946 -31.938126 -4.336299
					CHANNELS 3 Xrotation Yrotation Zrotation
					JOINT newVegas:RightToeBase
					{
						OFFSET -0.943001 -26.722004 15.023500
						CHANNELS 3 Xrotation Yrotation Zrotation
						End Site
						{
							OFFSET 0.000000 30.670187 0.000000
						}
					}
				}
				JOINT newVegas:Right_PantLeg
				{
					OFFSET -0.661674 -9.044716 -1.108900
					CHANNELS 3 Xrotation Yrotation Zrotation
					End Site
					{
						OFFSET -1.415958 20.635269 0.000000
					}
				}
			}
		}
	}
	JOINT newVegas:Spine
	{
		OFFSET 0.000000 10.199997 -0.299500
		CHANNELS 3 Xrotation Yrotation Zrotation
		JOINT newVegas:Spine1
		{
			OFFSET 0.000000 11.900002 -1.516600
			CHANNELS 3 Xrotation Yrotation Zrotation
			JOINT newVegas:Spine2
			{
				OFFSET 0.000000 13.600006 -2.842500
				CHANNELS 3 Xrotation Yrotation Zrotation
				JOINT newVegas:Neck
				{
					OFFSET 0.000000 9.624100 -2.890100
					CHANNELS 3 Xrotation Yrotation Zrotation
					JOINT newVegas:Head
					{
						OFFSET 0.000000 14.068802 -1.351900
						CHANNELS 3 Xrotation Yrotation Zrotation
						JOINT newVegas:Hair_Back
						{
							OFFSET 0.000000 3.231903 -17.524799
							CHANNELS 3 Xrotation Yrotation Zrotation
							End Site
							{
								OFFSET 0.000000 19.849884 0.000000
							}
						}
						JOINT newVegas:Hair_Front
						{
							OFFSET 0.000000 31.260406 4.573800
							CHANNELS 3 Xrotation Yrotation Zrotation
							JOINT newVegas:Hair_Front1
							{
								OFFSET 0.000000 2.284103 11.993300
								CHANNELS 3 Xrotation Yrotation Zrotation
								JOINT newVegas:Hair_Front2
								{
									OFFSET 0.000000 2.284103 11.993300
									CHANNELS 3 Xrotation Yrotation Zrotation
									End Site
									{
										OFFSET 0.000000 12.208862 0.000000
									}
								}
							}
						}
						JOINT newVegas:Jowel
						{
							OFFSET 0.000000 -7.458206 6.864100
							CHANNELS 3 Xrotation Yrotation Zrotation
							End Site
							{
								OFFSET 0.000000 19.849884 0.000000
							}
						}
					}
				}
				JOINT newVegas:LeftShoulder
				{
					OFFSET 15.263000 10.923401 -0.547700
					CHANNELS 3 Xrotation Yrotation Zrotation
					JOINT newVegas:LeftArm
					{
						OFFSET 25.438599 -2.830597 -13.032500
						CHANNELS 3 Xrotation Yrotation Zrotation
						JOINT newVegas:LeftForeArm
						{
							OFFSET 29.960503 0.000000 0.000000
							CHANNELS 3 Xrotation Yrotation Zrotation
							JOINT newVegas:LeftHand
							{
								OFFSET 27.849251 0.000000 0.000000
								CHANNELS 3 Xrotation Yrotation Zrotation
								JOINT newVegas:LeftHandThumb1
								{
									OFFSET 4.487587 -3.305161 6.305391
									CHANNELS 3 Xrotation Yrotation Zrotation
									JOINT newVegas:LeftHandThumb2
									{
										OFFSET 5.480453 -3.164139 3.164143
										CHANNELS 3 Xrotation Yrotation Zrotation
										JOINT newVegas:LeftHandThumb3
										{
											OFFSET 5.159721 -2.978973 2.978967
											CHANNELS 3 Xrotation Yrotation Zrotation
											End Site
											{
												OFFSET 2.494507 5.926697 1.738678
											}
										}
									}
								}
								JOINT newVegas:LeftHandIndex1
								{
									OFFSET 18.578728 -0.527832 5.208049
									CHANNELS 3 Xrotation Yrotation Zrotation
									JOINT newVegas:LeftHandIndex2
									{
										OFFSET 3.192009 0.000000 0.000000
										CHANNELS 3 Xrotation Yrotation Zrotation
										JOINT newVegas:LeftHandIndex3
										{
											OFFSET 3.835129 0.000000 0.000000
											CHANNELS 3 Xrotation Yrotation Zrotation
											End Site
											{
												OFFSET -0.034599 3.816971 0.371180
											}
										}
									}
								}
								JOINT newVegas:LeftHandMiddle1
								{
									OFFSET 18.476105 0.000000 0.000000
									CHANNELS 3 Xrotation Yrotation Zrotation
									JOINT newVegas:LeftHandMiddle2
									{
										OFFSET 3.324875 0.000000 0.000000
										CHANNELS 3 Xrotation Yrotation Zrotation
										JOINT newVegas:LeftHandMiddle3
										{
											OFFSET 4.596550 0.000000 0.000000
											CHANNELS 3 Xrotation Yrotation Zrotation
											End Site
											{
												OFFSET 0.057701 4.578827 0.399218
											}
										}
									}
								}
								JOINT newVegas:LeftHandRing1
								{
									OFFSET 17.732719 0.121887 -4.201567
									CHANNELS 3 Xrotation Yrotation Zrotation
									JOINT newVegas:LeftHandRing2
									{
										OFFSET 2.733170 0.000000 0.000000
										CHANNELS 3 Xrotation Yrotation Zrotation
										JOINT newVegas:LeftHandRing3
										{
											OFFSET 3.178268 0.000000 0.000000
											CHANNELS 3 Xrotation Yrotation Zrotation
											End Site
											{
												OFFSET 0.119102 3.170624 0.185394
											}
										}
									}
								}
								JOINT newVegas:LeftHandPinky1
								{
									OFFSET 15.989624 -0.606689 -7.535461
									CHANNELS 3 Xrotation Yrotation Zrotation
									JOINT newVegas:LeftHandPinky2
									{
										OFFSET 2.538986 0.000000 0.000000
										CHANNELS 3 Xrotation Yrotation Zrotation
										JOINT newVegas:LeftHandPinky3
										{
											OFFSET 2.593102 0.000000 0.000000
											CHANNELS 3 Xrotation Yrotation Zrotation
											End Site
											{
												OFFSET -0.150902 2.584198 0.152708
											}
										}
									}
								}
							}
							JOINT newVegas:Left_Sleeve
							{
								OFFSET 0.267448 -0.649796 0.577675
								CHANNELS 3 Xrotation Yrotation Zrotation
								End Site
								{
									OFFSET 0.000000 15.991241 0.000000
								}
							}
							JOINT newVegas:Left_CapeC
							{
								OFFSET 15.715958 -8.608795 -6.935905
								CHANNELS 3 Xrotation Yrotation Zrotation
								JOINT newVegas:Left_CapeC1
								{
									OFFSET 0.000000 -8.688499 0.000000
									CHANNELS 3 Xrotation Yrotation Zrotation
									End Site
									{
										OFFSET 0.000000 8.688499 0.000000
									}
								}
							}
						}
						JOINT newVegas:Left_CapeB
						{
							OFFSET 26.118385 -8.608795 -7.079235
							CHANNELS 3 Xrotation Yrotation Zrotation
							JOINT newVegas:Left_CapeB1
							{
								OFFSET 0.000000 -8.688499 0.000000
								CHANNELS 3 Xrotation Yrotation Zrotation
								End Site
								{
									OFFSET 0.000000 8.688499 0.000000
								}
							}
						}
						JOINT newVegas:Left_CapeA
						{
							OFFSET 5.115639 -8.608795 -10.395809
							CHANNELS 3 Xrotation Yrotation Zrotation
							JOINT newVegas:Left_CapeA1
							{
								OFFSET 0.000000 -8.688499 0.000000
								CHANNELS 3 Xrotation Yrotation Zrotation
								End Site
								{
									OFFSET 0.000000 8.688499 0.000000
								}
							}
						}
					}
				}
				JOINT newVegas:RightShoulder
				{
					OFFSET -15.263000 10.923401 -0.547700
					CHANNELS 3 Xrotation Yrotation Zrotation
					JOINT newVegas:RightArm
					{
						OFFSET -25.438599 -2.830597 -13.032500
						CHANNELS 3 Xrotation Yrotation Zrotation
						JOINT newVegas:RightForeArm
						{
							OFFSET -29.960503 0.000000 0.000000
							CHANNELS 3 Xrotation Yrotation Zrotation
							JOINT newVegas:RightHand
							{
								OFFSET -27.849251 0.000000 0.000000
								CHANNELS 3 Xrotation Yrotation Zrotation
								JOINT newVegas:RightHandThumb1
								{
									OFFSET -4.487587 -3.305161 6.305391
									CHANNELS 3 Xrotation Yrotation Zrotation
									JOINT newVegas:RightHandThumb2
									{
										OFFSET -5.480453 -3.164139 3.164143
										CHANNELS 3 Xrotation Yrotation Zrotation
										JOINT newVegas:RightHandThumb3
										{
											OFFSET -5.159721 -2.978973 2.978967
											CHANNELS 3 Xrotation Yrotation Zrotation
											End Site
											{
												OFFSET -2.494507 5.926697 1.738678
											}
										}
									}
								}
								JOINT newVegas:RightHandIndex1
								{
									OFFSET -18.578728 -0.527832 5.208049
									CHANNELS 3 Xrotation Yrotation Zrotation
									JOINT newVegas:RightHandIndex2
									{
										OFFSET -3.192009 0.000000 0.000000
										CHANNELS 3 Xrotation Yrotation Zrotation
										JOINT newVegas:RightHandIndex3
										{
											OFFSET -3.835129 0.000000 0.000000
											CHANNELS 3 Xrotation Yrotation Zrotation
											End Site
											{
												OFFSET 0.034599 3.816971 0.371180
											}
										}
									}
								}
								JOINT newVegas:RightHandMiddle1
								{
									OFFSET -18.476105 0.000000 0.000000
									CHANNELS 3 Xrotation Yrotation Zrotation
									JOINT newVegas:RightHandMiddle2
									{
										OFFSET -3.324875 0.000000 0.000000
										CHANNELS 3 Xrotation Yrotation Zrotation
										JOINT newVegas:RightHandMiddle3
										{
											OFFSET -4.596550 0.000000 0.000000
											CHANNELS 3 Xrotation Yrotation Zrotation
											End Site
											{
												OFFSET -0.057701 4.578827 0.399218
											}
										}
									}
								}
								JOINT newVegas:RightHandRing1
								{
									OFFSET -17.732719 0.121887 -4.201567
									CHANNELS 3 Xrotation Yrotation Zrotation
									JOINT newVegas:RightHandRing2
									{
										OFFSET -2.733170 0.000000 0.000000
										CHANNELS 3 Xrotation Yrotation Zrotation
										JOINT newVegas:RightHandRing3
										{
											OFFSET -3.178268 0.000000 0.000000
											CHANNELS 3 Xrotation Yrotation Zrotation
											End Site
											{
												OFFSET -0.119102 3.170624 0.185394
											}
										}
									}
								}
								JOINT newVegas:RightHandPinky1
								{
									OFFSET -15.989624 -0.606689 -7.535461
									CHANNELS 3 Xrotation Yrotation Zrotation
									JOINT newVegas:RightHandPinky2
									{
										OFFSET -2.538986 0.000000 0.000000
										CHANNELS 3 Xrotation Yrotation Zrotation
										JOINT newVegas:RightHandPinky3
										{
											OFFSET -2.593102 0.000000 0.000000
											CHANNELS 3 Xrotation Yrotation Zrotation
											End Site
											{
												OFFSET 0.150902 2.584198 0.152708
											}
										}
									}
								}
							}
							JOINT newVegas:Right_CapeC
							{
								OFFSET -15.715958 -8.608795 -6.935905
								CHANNELS 3 Xrotation Yrotation Zrotation
								JOINT newVegas:Right_CapeC1
								{
									OFFSET 0.000000 -8.688499 0.000000
									CHANNELS 3 Xrotation Yrotation Zrotation
									End Site
									{
										OFFSET 0.000000 8.688499 0.000000
									}
								}
							}
							JOINT newVegas:Right_Sleeve
							{
								OFFSET -0.267448 -0.649994 0.577675
								CHANNELS 3 Xrotation Yrotation Zrotation
								End Site
								{
									OFFSET 0.000000 15.991302 0.000000
								}
							}
						}
						JOINT newVegas:Right_CapeA
						{
							OFFSET -5.115540 -8.608795 -10.395824
							CHANNELS 3 Xrotation Yrotation Zrotation
							JOINT newVegas:Right_CapeA1
							{
								OFFSET 0.000000 -8.688499 0.000000
								CHANNELS 3 Xrotation Yrotation Zrotation
								End Site
								{
									OFFSET 0.000000 8.688499 0.000000
								}
							}
						}
						JOINT newVegas:Right_CapeB
						{
							OFFSET -26.118187 -8.608795 -7.079266
							CHANNELS 3 Xrotation Yrotation Zrotation
							JOINT newVegas:Right_CapeB1
							{
								OFFSET 0.000000 -8.688499 0.000000
								CHANNELS 3 Xrotation Yrotation Zrotation
								End Site
								{
									OFFSET 0.000000 8.688499 0.000000
								}
							}
						}
					}
				}
				JOINT newVegas:Left_Collar
				{
					OFFSET 18.625099 8.655502 8.828100
					CHANNELS 3 Xrotation Yrotation Zrotation
					JOINT newVegas:Left_Collar1
					{
						OFFSET 14.783401 10.540405 -1.259500
						CHANNELS 3 Xrotation Yrotation Zrotation
						End Site
						{
							OFFSET 0.000000 18.199875 0.000000
						}
					}
				}
				JOINT newVegas:Collar_Back
				{
					OFFSET 0.000000 15.630707 -20.132601
					CHANNELS 3 Xrotation Yrotation Zrotation
					End Site
					{
						OFFSET 0.000000 22.523010 0.000000
					}
				}
				JOINT newVegas:Left_Peck
				{
					OFFSET 17.239599 -5.132599 25.482599
					CHANNELS 3 Xrotation Yrotation Zrotation
					End Site
					{
						OFFSET 0.000000 22.523010 0.000000
					}
				}
				JOINT newVegas:Right_Peck
				{
					OFFSET -17.239599 -5.132202 25.482599
					CHANNELS 3 Xrotation Yrotation Zrotation
					End Site
					{
						OFFSET 0.000000 22.523010 0.000000
					}
				}
				JOINT newVegas:Right_Collar
				{
					OFFSET -18.625099 8.655792 8.828100
					CHANNELS 3 Xrotation Yrotation Zrotation
					JOINT newVegas:Right_Collar1
					{
						OFFSET -14.783401 10.539993 -1.259500
						CHANNELS 3 Xrotation Yrotation Zrotation
						End Site
						{
							OFFSET 0.000000 18.199631 0.000000
						}
					}
				}
			}
		}
		JOINT newVegas:Belly
		{
			OFFSET 0.000000 -6.540398 9.014299
			CHANNELS 3 Xrotation Yrotation Zrotation
			End Site
			{
				OFFSET 0.000000 11.566666 0.000000
			}
		}
	}
	JOINT newVegas:ElvisFacialAnim_Joint
	{
		OFFSET 1.000000 -95.330101 -8.825800
		CHANNELS 3 Xrotation Yrotation Zrotation
		End Site
		{
			OFFSET 0.000000 35.315800 0.000000
		}
	}
}
MOTION
Frames: 4
Frame Time: 0.016667
-0.917298 88.788177 47.436859 10.279993 -5.226479 0.044959 0.000000 0.000000 -0.000000 -32.073243 4.378507 18.041694 40.073925 7.447696 0.183631 -16.417784 -2.352060 -16.472442 0.000000 0.000001 -0.000000 0.000002 0.000001 0.000001 -37.341723 -1.629739 -7.074694 41.921765 1.698243 -4.509871 -13.158944 -12.453892 11.166661 0.000000 -0.000001 -0.000000 -0.000001 0.000001 -0.000001 5.319821 0.181025 -1.191570 2.188028 -0.566219 -0.158978 0.272739 -0.972616 0.898067 5.032859 -0.181137 0.867246 5.032855 -0.181136 0.867246 0.000001 0.000000 -0.000000 5.032849 -0.181137 0.867246 5.032929 -0.181144 0.867248 0.000001 -0.000000 0.000000 0.000001 0.000000 -0.000000 5.876927 -7.979695 20.002228 -34.254683 -16.965582 -14.997635 0.000001 -124.447536 0.000000 -1.398394 -13.673585 39.579532 28.620009 -24.676668 7.683738 13.196506 30.099366 -41.312044 0.000000 -0.000000 -0.000003 3.052573 -0.236008 -15.996346 0.004178 0.221369 -2.160732 -0.000000 0.000000 0.000001 0.872757 5.500587 -21.877304 0.087927 1.012246 -9.928494 0.000000 -0.000000 0.000001 1.472005 7.478228 -18.525763 0.300209 1.853019 -18.403444 0.000000 0.000001 -0.000000 -1.697500 15.557749 -19.134802 0.370820 2.052984 -20.475331 -0.000000 -0.000003 -0.000001 -0.000000 0.000001 -0.000000 -0.000000 0.000001 -0.000000 -0.000000 0.000001 -0.000000 0.000000 0.000004 -0.000000 0.000000 0.000003 -0.000000 0.000000 0.000004 -0.000000 0.000000 0.000003 -0.000000 -1.569647 -8.377657 -14.965269 -29.516119 36.059932 26.253335 0.000001 121.356356 0.000000 1.490562 12.183663 -43.921197 27.217069 26.328177 -7.221394 12.620629 -31.646404 39.727693 0.000002 0.000003 0.000003 3.344726 0.259454 17.143664 0.003477 -0.180160 2.211958 0.000001 -0.000003 -0.000004 0.921718 -5.175090 25.205473 0.070801 -0.809839 9.992539 0.000000 -0.000002 -0.000001 1.333972 -6.500112 20.818242 0.269514 -1.562837 19.567771 0.000000 0.000004 -0.000000 -2.139005 -15.198733 21.741667 0.300647 -1.647788 20.679361 -0.000000 0.000003 0.000000 -0.000000 0.000001 -0.000000 -0.000000 -0.000002 -0.000000 -0.000000 0.000001 -0.000000 0.000000 -0.000001 0.000000 0.000000 0.000000 -0.000000 0.000000 -0.000001 0.000000 0.000000 -0.000000 -0.000000 0.000002 0.000000 0.000000 0.000002 0.000000 0.000000 0.000002 0.000000 0.000000 0.000002 0.000000 0.000000 0.000002 0.000000 0.000000 0.000002 0.000000 0.000000 0.000002 0.000000 0.000000 -0.000001 0.000000 -0.000000 0.000000 0.000000 -0.000000 
-0.954812 89.382668 47.822884 10.556071 -5.046150 0.041549 -0.000001 -0.000000 0.000000 -30.756492 4.856446 17.836264 37.238328 7.496478 0.177663 -15.298584 -2.558998 -16.310787 -0.000000 -0.000001 -0.000000 -0.000000 -0.000001 -0.000000 -35.870801 -1.824577 -6.965700 39.339772 1.444779 -4.532407 -12.304481 -12.377344 11.222212 -0.000000 -0.000000 0.000000 0.000001 0.000001 -0.000000 5.189612 0.175364 -1.166528 1.911442 -0.569144 -0.186931 -0.161181 -0.970426 0.868122 4.979717 -0.177904 0.902164 4.979747 -0.177906 0.902163 -0.000000 -0.000001 0.000000 4.979734 -0.177905 0.902163 4.979843 -0.177909 0.902164 0.000002 0.000000 -0.000000 -0.000000 -0.000001 0.000000 5.875348 -8.055281 20.055963 -34.142558 -16.790070 -15.375133 -0.000000 -124.460090 -0.000001 -2.606255 -13.888121 39.182524 28.761472 -24.766937 7.719545 13.199910 30.105155 -41.441234 0.000001 -0.000001 -0.000006 3.069568 -0.215140 -16.039873 0.003672 0.207615 -2.026402 -0.000000 0.000000 0.000001 0.875038 5.503073 -21.943374 0.082610 0.981389 -9.622844 -0.000000 0.000001 0.000001 1.474911 7.486884 -18.524902 0.296680 1.842394 -18.294110 0.000000 -0.000001 -0.000000 -1.764790 15.538911 -19.028350 0.367412 2.043824 -20.379900 -0.000000 -0.000003 -0.000001 0.000000 -0.000000 0.000000 0.000000 -0.000000 0.000000 0.000000 -0.000000 0.000000 -0.000000 0.000000 0.000000 -0.000000 -0.000001 0.000000 -0.000000 0.000000 0.000000 -0.000000 -0.000001 0.000000 -1.577465 -8.399917 -14.977693 -29.040786 36.106330 26.125861 -0.000000 121.325552 0.000000 0.621400 13.275606 -43.722455 27.195547 26.336473 -7.211339 12.611091 -31.646599 39.702394 -0.000002 -0.000000 -0.000000 3.355494 0.248060 17.203466 0.003511 -0.180909 2.221369 0.000000 -0.000000 -0.000003 0.928098 -5.183125 25.338448 0.071178 -0.811964 10.018983 0.000001 -0.000000 -0.000000 1.330933 -6.479216 20.917195 0.270810 -1.566478 19.615176 0.000000 -0.000001 -0.000000 -2.120921 -15.198100 21.855222 0.301311 -1.649527 20.702206 -0.000001 0.000003 -0.000000 0.000000 0.000004 0.000000 0.000000 0.000004 0.000000 0.000000 0.000004 0.000000 0.000000 -0.000003 -0.000000 0.000000 -0.000002 -0.000000 0.000000 -0.000003 -0.000000 0.000000 -0.000002 0.000000 0.000002 0.000000 0.000000 0.000002 0.000000 0.000000 0.000002 0.000000 0.000000 0.000002 0.000000 0.000000 0.000002 0.000000 0.000000 0.000002 0.000000 0.000000 0.000002 0.000000 0.000000 0.000000 0.000000 -0.000000 -0.000001 -0.000000 0.000000 
-0.989425 89.915741 48.163086 10.795049 -4.854805 0.030738 -0.000000 0.000000 0.000000 -29.511926 5.295548 17.647554 34.533112 7.536231 0.168853 -14.194772 -2.776753 -16.164917 0.000000 0.000000 0.000000 -0.000002 -0.000001 -0.000000 -34.480612 -2.005643 -6.854119 36.897768 1.185074 -4.558827 -11.471672 -12.301258 11.267531 -0.000000 0.000001 0.000000 -0.000001 0.000001 -0.000000 5.077530 0.171042 -1.136259 1.666086 -0.571975 -0.208916 -0.559321 -0.968295 0.843850 4.918932 -0.178780 0.935436 4.918933 -0.178785 0.935437 0.000001 0.000000 -0.000000 4.918847 -0.178780 0.935434 4.919033 -0.178789 0.935437 -0.000001 0.000000 0.000001 0.000001 0.000000 -0.000000 5.878848 -8.060528 20.101160 -33.982216 -16.856634 -15.686667 0.000001 -124.387608 -0.000001 -3.851816 -13.938196 39.134050 28.792621 -24.793645 7.783945 13.167955 30.092973 -41.468910 0.000001 -0.000001 -0.000004 3.081259 -0.191198 -16.120741 0.003525 0.203397 -1.985206 0.000001 -0.000001 0.000002 0.878242 5.506974 -22.027375 0.078930 0.959449 -9.405678 0.000001 0.000000 0.000001 1.484617 7.508868 -18.559301 0.295693 1.839403 -18.263371 -0.000000 0.000001 -0.000000 -1.807167 15.526714 -18.984871 0.366258 2.040712 -20.347379 -0.000000 -0.000005 -0.000001 -0.000000 0.000001 0.000000 -0.000000 0.000001 0.000000 -0.000000 0.000001 0.000000 -0.000000 0.000005 0.000000 0.000000 0.000004 0.000000 -0.000000 0.000005 0.000000 0.000000 0.000003 0.000000 -1.587337 -8.450118 -14.986752 -28.633703 36.187736 26.024561 0.000000 121.147188 0.000001 -0.032553 14.261420 -43.465309 27.172975 26.344574 -7.200400 12.601712 -31.646944 39.677115 -0.000001 0.000000 0.000001 3.366425 0.236506 17.265615 0.003550 -0.182010 2.234964 0.000000 0.000003 0.000002 0.934622 -5.191282 25.473979 0.071601 -0.814359 10.048939 0.000000 0.000002 -0.000000 1.327868 -6.458137 21.018517 0.272230 -1.570456 19.667004 0.000001 -0.000001 0.000000 -2.102272 -15.197538 21.971400 0.302126 -1.651685 20.730428 0.000001 0.000003 -0.000001 0.000000 0.000001 0.000000 0.000000 -0.000001 0.000000 0.000000 0.000001 0.000000 -0.000000 0.000002 -0.000000 0.000000 0.000002 -0.000001 -0.000000 0.000002 -0.000000 0.000000 0.000002 -0.000000 0.000001 0.000000 0.000000 0.000001 0.000000 0.000000 0.000001 0.000000 0.000000 0.000001 0.000000 0.000000 0.000001 0.000000 0.000000 0.000001 0.000000 0.000000 0.000001 0.000000 0.000000 0.000000 -0.000000 -0.000000 -0.000000 0.000000 0.000000 
-1.020036 90.381432 48.452007 10.969583 -4.665124 0.018635 -0.000000 0.000001 -0.000000 -28.345522 5.696611 17.471364 32.036381 7.569123 0.157474 -13.148720 -2.997225 -16.022393 -0.000000 0.000001 -0.000000 -0.000001 0.000001 0.000002 -33.189125 -2.171838 -6.751893 34.671471 0.941029 -4.588272 -10.693811 -12.228552 11.298830 -0.000000 -0.000002 -0.000000 -0.000000 0.000001 -0.000000 4.985317 0.167789 -1.101604 1.454992 -0.575847 -0.227306 -0.918374 -0.967315 0.822786 4.858194 -0.183457 0.965932 4.858179 -0.183454 0.965932 0.000000 0.000000 0.000000 4.858119 -0.183455 0.965931 4.858442 -0.183463 0.965936 0.000001 -0.000001 0.000001 0.000000 0.000000 0.000000 5.881368 -7.946039 20.121312 -33.764398 -17.243359 -15.928114 -0.000000 -124.230882 -0.000000 -5.100336 -13.844758 39.465670 28.512983 -24.637874 7.851863 13.061353 30.072715 -41.232670 0.000001 -0.000002 -0.000005 3.077371 -0.164136 -16.281202 0.004281 0.224185 -2.188234 0.000001 -0.000000 0.000000 0.883473 5.514441 -22.140965 0.079766 0.964479 -9.455459 0.000000 0.000000 -0.000000 1.509857 7.560493 -18.676278 0.301355 1.856462 -18.438888 -0.000000 0.000001 -0.000001 -1.778060 15.533308 -19.108684 0.371054 2.053602 -20.481733 -0.000000 -0.000003 -0.000001 0.000000 0.000000 0.000000 0.000000 0.000000 0.000000 0.000000 0.000000 0.000000 0.000000 0.000001 0.000000 0.000000 0.000000 -0.000000 0.000000 0.000001 0.000000 0.000000 -0.000000 0.000000 -1.601076 -8.534186 -15.002514 -28.345504 36.296868 26.002358 0.000000 120.828833 0.000000 -0.558087 15.208070 -43.049067 27.151400 26.352589 -7.190642 12.592150 -31.647101 39.651786 0.000003 -0.000002 -0.000001 3.377262 0.225129 17.325635 0.003583 -0.182825 2.244908 0.000000 -0.000003 -0.000003 0.941041 -5.199270 25.607127 0.071982 -0.816520 10.075863 -0.000000 0.000001 -0.000001 1.324664 -6.437251 21.117610 0.273538 -1.574122 19.714955 -0.000000 -0.000003 -0.000001 -2.084216 -15.196763 22.085101 0.302795 -1.653461 20.753800 0.000000 0.000002 -0.000000 -0.000000 0.000002 -0.000000 -0.000000 -0.000002 -0.000000 -0.000000 0.000002 -0.000000 0.000000 -0.000004 -0.000000 0.000000 -0.000003 -0.000000 0.000000 -0.000004 -0.000000 0.000000 -0.000003 -0.000000 -0.000000 -0.000000 0.000000 -0.000000 -0.000000 0.000000 -0.000000 -0.000000 0.000000 -0.000000 -0.000000 0.000000 -0.000000 -0.000000 0.000000 -0.000000 -0.000000 0.000000 -0.000000 -0.000000 0.000000 0.000001 0.000000 -0.000000 -0.000000 0.000001 -0.000000 
